<?xml version="1.0" standalone="no"?>
<!DOCTYPE svg PUBLIC "-//W3C//DTD SVG 20010904//EN"
 "http://www.w3.org/TR/2001/REC-SVG-20010904/DTD/svg10.dtd">
<svg version="1.0" xmlns="http://www.w3.org/2000/svg"
 width="128.000000pt" height="128.000000pt" viewBox="0 0 128.000000 128.000000"
 preserveAspectRatio="xMidYMid meet">
<metadata>
Created by potrace 1.11, written by Peter Selinger 2001-2013
</metadata>
<g transform="translate(0.000000,128.000000) scale(0.100000,-0.100000)"
fill="#000000" stroke="none">
<path d="M71 1262 c-19 -9 -43 -33 -53 -52 -17 -32 -18 -70 -18 -570 0 -599
-1 -587 70 -622 32 -16 81 -18 570 -18 599 0 587 -1 622 70 16 32 18 81 18
570 0 599 1 587 -70 622 -32 16 -81 18 -570 18 -490 0 -538 -2 -569 -18z m789
-633 l0 -240 -47 3 -48 3 -3 238 -2 237 50 0 50 0 0 -241z m-660 41 l0 -180
115 0 115 0 0 -50 0 -50 -160 0 -160 0 0 230 0 230 45 0 45 0 0 -180z m320
-25 c17 -52 35 -97 39 -99 4 -3 22 40 40 95 l32 99 50 0 c27 0 49 -3 49 -7 1
-5 -28 -84 -62 -176 l-63 -168 -45 3 -45 3 -62 160 c-34 88 -62 166 -62 173
-1 8 15 12 48 12 l49 0 32 -95z m634 28 c-21 -38 -52 -93 -70 -123 l-32 -55
66 -5 67 -5 3 -47 3 -48 -145 0 c-81 0 -146 2 -146 4 0 2 31 58 69 125 l69
120 -66 3 -67 3 -3 48 -3 47 146 0 147 0 -38 -67z"/>
</g>
</svg>
